<?xml version="1.0" encoding="UTF-8" standalone="no"?>
<!-- Generator: Adobe Illustrator 24.0.1, SVG Export Plug-In . SVG Version: 6.00 Build 0)  -->

<svg
   xmlns:dc="http://purl.org/dc/elements/1.1/"
   xmlns:cc="http://creativecommons.org/ns#"
   xmlns:rdf="http://www.w3.org/1999/02/22-rdf-syntax-ns#"
   xmlns:svg="http://www.w3.org/2000/svg"
   xmlns="http://www.w3.org/2000/svg"
   xmlns:sodipodi="http://sodipodi.sourceforge.net/DTD/sodipodi-0.dtd"
   xmlns:inkscape="http://www.inkscape.org/namespaces/inkscape"
   version="1.1"
   id="Layer_1"
   x="0px"
   y="0px"
   viewBox="0 0 660 545"
   style="enable-background:new 0 0 660 545;"
   xml:space="preserve"
   sodipodi:docname="crown.svg"
   inkscape:version="0.92.4 (5da689c313, 2019-01-14)"
   inkscape:export-filename="/home/jonash/Hentninger/crown-flag-dk.png"
   inkscape:export-xdpi="95"
   inkscape:export-ydpi="95"><metadata
   id="metadata47"><rdf:RDF><cc:Work
       rdf:about=""><dc:format>image/svg+xml</dc:format><dc:type
         rdf:resource="http://purl.org/dc/dcmitype/StillImage" /><dc:title></dc:title></cc:Work></rdf:RDF></metadata><defs
   id="defs45" /><sodipodi:namedview
   pagecolor="#ffffff"
   bordercolor="#666666"
   borderopacity="1"
   objecttolerance="10"
   gridtolerance="10"
   guidetolerance="10"
   inkscape:pageopacity="0"
   inkscape:pageshadow="2"
   inkscape:window-width="2560"
   inkscape:window-height="1376"
   id="namedview43"
   showgrid="false"
   inkscape:zoom="1.4142136"
   inkscape:cx="273.9661"
   inkscape:cy="265.37576"
   inkscape:window-x="0"
   inkscape:window-y="27"
   inkscape:window-maximized="1"
   inkscape:current-layer="layer3"
   inkscape:snap-intersection-paths="true"
   inkscape:snap-bbox="false"
   inkscape:snap-bbox-edge-midpoints="false"
   inkscape:bbox-paths="false"
   inkscape:snap-midpoints="false"
   inkscape:snap-page="false"
   showguides="true"
   inkscape:guide-bbox="true"
   inkscape:snap-to-guides="true"
   inkscape:snap-grids="true"
   inkscape:object-nodes="true"
   inkscape:snap-nodes="true"><inkscape:grid
     type="xygrid"
     id="grid836"
     spacingx="77.85714"
     spacingy="77.85714"
     empspacing="1"
     originy="545" /></sodipodi:namedview>

<g
   inkscape:groupmode="layer"
   id="layer2"
   inkscape:label="BG"
   style="display:inline"
   sodipodi:insensitive="true"><path
     d="M 0,0 H 660 L 630,443.7 330,545 30,443.7 Z"
     id="rect74"
     inkscape:connector-curvature="0"
     sodipodi:nodetypes="cccccc"
     inkscape:label="BG"
     style="fill:#c13a2c" /></g><g
   inkscape:groupmode="layer"
   id="layer6"
   inkscape:label="Vertical-2"
   style="display:none"
   sodipodi:insensitive="true"><path
     style="fill:#d5e0bb;fill-opacity:1;stroke:none;stroke-width:1px;stroke-linecap:butt;stroke-linejoin:miter;stroke-opacity:1"
     d="M 0,0 H 330 V 545 L 30,443.7 Z"
     id="path4597"
     inkscape:connector-curvature="0" /><path
     style="fill:#d568bb;fill-opacity:1;stroke:none;stroke-width:1px;stroke-linecap:butt;stroke-linejoin:miter;stroke-opacity:1"
     d="M 330,0 H 660 L 630,443.7 330,545 Z"
     id="path4599"
     inkscape:connector-curvature="0" /></g><g
   inkscape:groupmode="layer"
   id="layer8"
   inkscape:label="Vertical-3"
   style="display:none"
   sodipodi:insensitive="true"><path
     style="fill:#d5e0bb;fill-opacity:1;stroke:none;stroke-width:1px;stroke-linecap:butt;stroke-linejoin:miter;stroke-opacity:1"
     d="M 0,0 H 220 V 507.85667 L 30,443.7 Z"
     id="path4616"
     inkscape:connector-curvature="0" /><path
     style="fill:#d551bb;fill-opacity:1;stroke:none;stroke-width:1px;stroke-linecap:butt;stroke-linejoin:miter;stroke-opacity:1"
     d="M 220,0 H 440 V 507.85667 L 330,545 220,507.85667 Z"
     id="path4618"
     inkscape:connector-curvature="0" /><path
     style="fill:#2e5131;fill-opacity:1;stroke:none;stroke-width:1px;stroke-linecap:butt;stroke-linejoin:miter;stroke-opacity:1"
     d="M 440,0 H 660 L 630,443.7 440,507.85667 Z"
     id="path4620"
     inkscape:connector-curvature="0" /></g><g
   inkscape:groupmode="layer"
   id="layer7"
   inkscape:label="Vertical-4"
   style="display:none"
   sodipodi:insensitive="true"><path
     style="fill:#1fffff;fill-opacity:1;stroke:none;stroke-width:1px;stroke-linecap:butt;stroke-linejoin:miter;stroke-opacity:1"
     d="M 0,0 H 165 V 489.285 L 30,443.7 Z"
     id="path4601"
     inkscape:connector-curvature="0" /><path
     style="fill:#1f68ff;fill-opacity:1;stroke:none;stroke-width:1px;stroke-linecap:butt;stroke-linejoin:miter;stroke-opacity:1"
     d="M 165,0 H 330 V 545 L 165,489.285 Z"
     id="path4603"
     inkscape:connector-curvature="0" /><path
     style="fill:#1f6817;fill-opacity:1;stroke:none;stroke-width:1px;stroke-linecap:butt;stroke-linejoin:miter;stroke-opacity:1"
     d="M 330,0 H 495 V 489.285 L 330,545 Z"
     id="path4605"
     inkscape:connector-curvature="0" /><path
     style="fill:#d568bb;fill-opacity:1;stroke:none;stroke-width:1px;stroke-linecap:butt;stroke-linejoin:miter;stroke-opacity:1"
     d="M 495,0 H 660 L 630,443.7 495,489.285 Z"
     id="path4607"
     inkscape:connector-curvature="0" /></g><g
   inkscape:groupmode="layer"
   id="layer10"
   inkscape:label="Vertical-5"
   style="display:none"
   sodipodi:insensitive="true"><path
     style="fill:#f1a438;fill-opacity:1;stroke:none;stroke-width:1px;stroke-linecap:butt;stroke-linejoin:miter;stroke-opacity:1"
     d="M 0,0 H 132 V 478.142 L 30,443.7 Z"
     id="path4656"
     inkscape:connector-curvature="0" /><path
     style="fill:#6fd14b;fill-opacity:1;stroke:none;stroke-width:1px;stroke-linecap:butt;stroke-linejoin:miter;stroke-opacity:1"
     d="M 132,0 H 264 V 522.714 L 132,478.142 Z"
     id="path4658"
     inkscape:connector-curvature="0" /><path
     style="fill:#d92dd3;fill-opacity:1;stroke:none;stroke-width:1px;stroke-linecap:butt;stroke-linejoin:miter;stroke-opacity:1"
     d="M 264,0 H 396 V 522.714 L 330,545 264,522.714 Z"
     id="path4660"
     inkscape:connector-curvature="0" /><path
     style="fill:#6fc3d3;fill-opacity:1;stroke:none;stroke-width:1px;stroke-linecap:butt;stroke-linejoin:miter;stroke-opacity:1"
     d="M 396,0 H 528 V 478.142 L 396,522.714 Z"
     id="path4662"
     inkscape:connector-curvature="0" /><path
     style="fill:#6f2dd3;fill-opacity:1;stroke:none;stroke-width:1px;stroke-linecap:butt;stroke-linejoin:miter;stroke-opacity:1"
     d="M 528,0 H 660 L 630,443.7 528,478.142 Z"
     id="path4664"
     inkscape:connector-curvature="0" /></g><g
   inkscape:groupmode="layer"
   id="layer9"
   inkscape:label="Vertical-6"
   style="display:none"
   sodipodi:insensitive="true"><path
     style="fill:#2e51bb;fill-opacity:1;stroke:none;stroke-width:1px;stroke-linecap:butt;stroke-linejoin:miter;stroke-opacity:1"
     d="M 0,0 H 110 V 470.71334 L 30,443.7 Z"
     id="path4631"
     inkscape:connector-curvature="0" /><path
     style="fill:#2ee5bb;fill-opacity:1;stroke:none;stroke-width:1px;stroke-linecap:butt;stroke-linejoin:miter;stroke-opacity:1"
     d="M 110,0 H 220 V 507.85667 L 110,470.71333 Z"
     id="path4633"
     inkscape:connector-curvature="0" /><path
     style="fill:#2ee56d;fill-opacity:1;stroke:none;stroke-width:1px;stroke-linecap:butt;stroke-linejoin:miter;stroke-opacity:1"
     d="M 220,0 H 330 V 545 L 220,507.85667 Z"
     id="path4635"
     inkscape:connector-curvature="0" /><path
     style="fill:#eacfd3;fill-opacity:1;stroke:none;stroke-width:1px;stroke-linecap:butt;stroke-linejoin:miter;stroke-opacity:1"
     d="M 330,0 H 440 V 507.85667 L 330,545 Z"
     id="path4637"
     inkscape:connector-curvature="0" /><path
     style="fill:#d051d3;fill-opacity:1;stroke:none;stroke-width:1px;stroke-linecap:butt;stroke-linejoin:miter;stroke-opacity:1"
     d="M 440,0 H 550 V 470.71334 L 440,507.85667 Z"
     id="path4639"
     inkscape:connector-curvature="0" /><path
     style="fill:#d0b547;fill-opacity:1;stroke:none;stroke-width:1px;stroke-linecap:butt;stroke-linejoin:miter;stroke-opacity:1"
     d="m 550,0 h 110 l -30,443.7 -80,27.01334 z"
     id="path4641"
     inkscape:connector-curvature="0" /></g><g
   inkscape:groupmode="layer"
   id="layer14"
   inkscape:label="Horizontal-2"
   sodipodi:insensitive="true"
   style="display:none"><path
     style="display:inline;fill:#129aeb;fill-opacity:1;stroke:none;stroke-width:1px;stroke-linecap:butt;stroke-linejoin:miter;stroke-opacity:1"
     d="M 0,0 H 660 L 641.57539,272.5 H 18.424611 Z"
     id="path4712"
     inkscape:connector-curvature="0"
     sodipodi:insensitive="true" /><path
     style="fill:#129a22;fill-opacity:1;stroke:none;stroke-width:1px;stroke-linecap:butt;stroke-linejoin:miter;stroke-opacity:1"
     d="M 18.424611,272.5 H 641.57539 L 630,443.7 330,545 30,443.7 Z"
     id="path4714"
     inkscape:connector-curvature="0"
     sodipodi:insensitive="true" /></g><g
   inkscape:groupmode="layer"
   id="layer11"
   inkscape:label="Horizontal-3"
   sodipodi:insensitive="true"
   style="display:none"><path
     style="fill:#f1a438;fill-opacity:1;stroke:none;stroke-width:1px;stroke-linecap:butt;stroke-linejoin:miter;stroke-opacity:1"
     d="M 0,0 H 660 L 647.71693,181.66667 H 12.283074 Z"
     id="path4671"
     inkscape:connector-curvature="0"
     sodipodi:insensitive="true" /><path
     style="fill:#4fa438;fill-opacity:1;stroke:none;stroke-width:1px;stroke-linecap:butt;stroke-linejoin:miter;stroke-opacity:1"
     d="M 12.283074,181.66667 H 647.71693 L 635.43385,363.33334 H 24.566149 Z"
     id="path4673"
     inkscape:connector-curvature="0"
     sodipodi:insensitive="true" /><path
     style="display:none;fill:#f1a4ed;fill-opacity:1;stroke:none;stroke-width:1px;stroke-linecap:butt;stroke-linejoin:miter;stroke-opacity:1"
     d="M 24.566149,363.33334 H 635.43385 L 630,443.7 330,545 30,443.7 Z"
     id="path4675"
     inkscape:connector-curvature="0"
     sodipodi:insensitive="true" /></g><g
   inkscape:groupmode="layer"
   id="layer13"
   inkscape:label="Horizontal-4"
   sodipodi:insensitive="true"
   style="display:none"><path
     style="fill:#f1ce22;fill-opacity:1;stroke:none;stroke-width:1px;stroke-linecap:butt;stroke-linejoin:miter;stroke-opacity:1"
     d="m 0,0 h 660 l -9.21231,136.25 H 9.2123056 Z"
     id="path4703"
     inkscape:connector-curvature="0" /><path
     style="fill:#39ce22;fill-opacity:1;stroke:none;stroke-width:1px;stroke-linecap:butt;stroke-linejoin:miter;stroke-opacity:1"
     d="M 9.2123056,136.25 H 650.78769 l -9.2123,136.25 H 18.424611 Z"
     id="path4705"
     inkscape:connector-curvature="0" /><path
     style="fill:#23ceeb;fill-opacity:1;stroke:none;stroke-width:1px;stroke-linecap:butt;stroke-linejoin:miter;stroke-opacity:1"
     d="M 18.424611,272.5 H 641.57539 l -9.21231,136.25 H 27.636917 Z"
     id="path4707"
     inkscape:connector-curvature="0" /><path
     style="fill:#f19a22;fill-opacity:1;stroke:none;stroke-width:1px;stroke-linecap:butt;stroke-linejoin:miter;stroke-opacity:1"
     d="M 27.636917,408.75 H 632.36308 L 630,443.7 330,545 30,443.7 Z"
     id="path4709"
     inkscape:connector-curvature="0" /></g><g
   inkscape:groupmode="layer"
   id="layer15"
   inkscape:label="Horizontal-5"
   sodipodi:insensitive="true"
   style="display:none"><path
     style="fill:#129ad7;fill-opacity:1;stroke:none;stroke-width:1px;stroke-linecap:butt;stroke-linejoin:miter;stroke-opacity:1"
     d="M 0,0 7.3698445,109 H 652.63016 L 660,0 Z"
     id="path4725"
     inkscape:connector-curvature="0" /><path
     style="fill:#d69ad7;fill-opacity:1;stroke:none;stroke-width:1px;stroke-linecap:butt;stroke-linejoin:miter;stroke-opacity:1"
     d="M 7.3698445,109 14.739689,218 H 645.26031 l 7.36985,-109 z"
     id="path4727"
     inkscape:connector-curvature="0" /><path
     style="fill:#129a32;fill-opacity:1;stroke:none;stroke-width:1px;stroke-linecap:butt;stroke-linejoin:miter;stroke-opacity:1"
     d="m 645.26031,218 -7.36984,109 H 22.109533 L 14.739689,218 Z"
     id="path4729"
     inkscape:connector-curvature="0" /><path
     style="fill:#ee9a21;fill-opacity:1;stroke:none;stroke-width:1px;stroke-linecap:butt;stroke-linejoin:miter;stroke-opacity:1"
     d="m 637.89047,327 -7.36985,109 H 29.479378 L 22.109533,327 Z"
     id="path4731"
     inkscape:connector-curvature="0" /><path
     style="fill:#904122;fill-opacity:1;stroke:none;stroke-width:1px;stroke-linecap:butt;stroke-linejoin:miter;stroke-opacity:1"
     d="M 630.52062,436 630,443.7 330,545 30,443.7 29.479378,436 Z"
     id="path4733"
     inkscape:connector-curvature="0" /></g><g
   inkscape:groupmode="layer"
   id="layer12"
   inkscape:label="Horizontal-6"
   style="display:none"
   sodipodi:insensitive="true"><path
     style="fill:#f1a4ed;fill-opacity:1;stroke:none;stroke-width:1px;stroke-linecap:butt;stroke-linejoin:miter;stroke-opacity:1"
     d="M 0,0 6.1415368,90.83333 H 653.85846 L 660,0 Z"
     id="path4684"
     inkscape:connector-curvature="0" /><path
     style="fill:#f1a485;fill-opacity:1;stroke:none;stroke-width:1px;stroke-linecap:butt;stroke-linejoin:miter;stroke-opacity:1"
     d="m 6.1415368,90.83333 6.1415372,90.83334 H 647.71693 l 6.14153,-90.83334 z"
     id="path4686"
     inkscape:connector-curvature="0" /><path
     style="fill:#f144ed;fill-opacity:1;stroke:none;stroke-width:1px;stroke-linecap:butt;stroke-linejoin:miter;stroke-opacity:1"
     d="m 12.283074,181.66667 6.141537,90.83332 H 641.57539 l 6.14154,-90.83332 z"
     id="path4688"
     inkscape:connector-curvature="0" /><path
     style="fill:#33a4ed;fill-opacity:1;stroke:none;stroke-width:1px;stroke-linecap:butt;stroke-linejoin:miter;stroke-opacity:1"
     d="m 641.57539,272.49999 -6.14154,90.83335 H 24.566149 l -6.141538,-90.83335 z"
     id="path4690"
     inkscape:connector-curvature="0" /><path
     style="fill:#2fa44f;fill-opacity:1;stroke:none;stroke-width:1px;stroke-linecap:butt;stroke-linejoin:miter;stroke-opacity:1"
     d="M 635.43385,363.33334 630,443.7 599.00301,454.16665 H 60.996989 L 30,443.7 24.566149,363.33334 Z"
     id="path4692"
     inkscape:connector-curvature="0" /><path
     style="fill:#f1ce22;fill-opacity:1;stroke:none;stroke-width:1px;stroke-linecap:butt;stroke-linejoin:miter;stroke-opacity:1"
     d="M 599.00301,454.16665 330,545 60.996989,454.16665 Z"
     id="path4694"
     inkscape:connector-curvature="0" /></g><g
   inkscape:groupmode="layer"
   id="layer16"
   inkscape:label="Nordic cross"
   style="display:none"
   sodipodi:insensitive="true"><path
     style="display:inline;fill:#c60c30;fill-opacity:1;stroke:none;stroke-width:1px;stroke-linecap:butt;stroke-linejoin:miter;stroke-opacity:1"
     d="M 0,0 H 660 L 630,443.7 330,545 30,443.7 Z"
     id="path4746"
     inkscape:connector-curvature="0"
     inkscape:label="base" /><path
     style="display:inline;fill:#f9f9f9;fill-opacity:1;stroke:none;stroke-width:1px;stroke-linecap:butt;stroke-linejoin:miter;stroke-opacity:1"
     d="M 15.792524,233.57143 H 233.57142 V 0 h 77.85714 v 233.57143 h 332.77892 l -5.26418,77.85713 H 311.42856 V 538.72904 L 233.57142,512.43928 V 311.42856 H 21.056698 Z"
     id="path4744"
     inkscape:connector-curvature="0"
     inkscape:label="cross" /></g><g
   inkscape:groupmode="layer"
   id="g4798"
   inkscape:label="Reddit NFL Offset-SE"
   style="display:none"
   sodipodi:insensitive="true"><g
     id="g4796"
     inkscape:label="Reddit NFL"
     style="fill:#000000"
     transform="translate(0.11,5.8)"><g
   id="g4786"
   inkscape:label="REDDIT"
   style="fill:#000000">
		<path
   class="st1"
   d="m 537.94,88.62 v 57.13 H 524 V 88.62 H 505.79 V 76.03 h 50.35 v 12.59 z"
   id="path4774"
   inkscape:connector-curvature="0"
   style="fill:#000000"
   inkscape:label="REDDI_T_" />
		<path
   class="st1"
   d="m 455.61,76.03 h 13.95 v 69.72 h -13.95 z"
   id="path4776"
   inkscape:connector-curvature="0"
   style="fill:#000000"
   inkscape:label="REDD_I_T" />
		<path
   class="st1"
   d="m 402.24,76.03 c 8.81,0 13.56,4.75 13.56,13.56 v 42.61 c 0,8.81 -4.75,13.56 -13.56,13.56 H 365.73 V 76.03 Z m -2.32,56.94 c 1.26,0 1.94,-0.68 1.94,-1.94 V 90.75 c 0,-1.26 -0.68,-1.94 -1.94,-1.94 h -20.24 v 44.16 z"
   id="path4778"
   inkscape:connector-curvature="0"
   style="fill:#000000"
   inkscape:label="RED_D_IT" /><path
   class="st1"
   d="m 312.36,76.03 c 8.81,0 13.56,4.75 13.56,13.56 v 42.61 c 0,8.81 -4.75,13.56 -13.56,13.56 H 275.85 V 76.03 Z m -2.33,56.94 c 1.26,0 1.94,-0.68 1.94,-1.94 V 90.75 c 0,-1.26 -0.68,-1.94 -1.94,-1.94 H 289.8 v 44.16 z"
   id="path4780"
   inkscape:connector-curvature="0"
   style="fill:#000000"
   inkscape:label="RE_D_DIT" /><path
   class="st1"
   d="m 237.39,76.03 v 12.78 h -31.67 v 15.01 h 25.66 v 12.59 h -25.66 v 16.56 h 31.67 v 12.78 H 191.78 V 76.03 Z"
   id="path4782"
   inkscape:connector-curvature="0"
   style="fill:#000000"
   inkscape:label="R_E_DDIT" />
		
		<path
   class="st1"
   d="M 139.08,145.75 127.85,119.9 h -11.23 v 25.85 H 102.67 V 76.03 h 35.73 c 8.81,0 13.56,4.75 13.56,13.56 v 16.75 c 0,7.26 -3.29,11.81 -9.39,13.17 l 11.52,26.24 z m -3,-38.25 c 1.26,0 1.94,-0.68 1.94,-1.94 v -15 c 0,-1.26 -0.68,-1.94 -1.94,-1.94 h -19.46 v 18.88 z"
   id="path4784"
   inkscape:connector-curvature="0"
   style="fill:#000000"
   inkscape:label="_R_EDDIT" />
		
	</g>
	
	<g
   id="g4794"
   inkscape:label="NFL"
   style="fill:#000000">
		<path
   class="st1"
   d="m 529.28,289.35 c -4.32,13.13 -6.47,19.82 -10.79,33.47 -14.39,3.91 -21.58,5.87 -35.96,9.78 0,-35.21 0,-70.43 0,-105.64 5.61,-2.68 8.42,-3.99 14.03,-6.55 0,-15.17 0,-22.76 0,-37.93 -26.18,0 -39.27,0 -65.45,0 0,17.02 0,25.52 0,42.54 5.61,2.04 8.41,3.03 14.02,4.95 0,35.62 0,71.24 0,106.86 -5.61,3.84 -8.41,5.79 -14.02,9.75 0,17.02 0,25.53 0,42.54 42.08,-14.41 84.15,-28.83 126.23,-43.24 0,-13.46 0,-20.18 0,-33.64 0,-11.53 0,-17.3 0,-28.84 -11.23,2.39 -16.84,3.57 -28.06,5.95 z"
   id="path4788"
   inkscape:connector-curvature="0"
   style="fill:#000000"
   inkscape:label="NF_L_" /><path
   class="st1"
   d="m 300.23,363.61 c -5.62,1.2 -8.43,1.77 -14.04,2.86 0,15.77 0,23.65 0,39.42 l 1.37,0.46 c 0.73,0.24 1.42,0.47 2.08,0.69 l 0.79,0.26 c 1.31,0.44 2.54,0.84 3.78,1.26 l 3.99,1.33 c 0.04,0.01 0.08,0.03 0.13,0.04 l 36.23,12.06 c 1.02,-0.21 2.06,-0.48 3.15,-0.85 l 5.93,-2.03 c 2.25,-0.77 4.39,-1.5 7.2,-2.47 l 0.87,-0.3 c 0,-16.51 -0.01,-24.76 -0.01,-41.27 -5.61,-1.17 -8.41,-1.78 -14.01,-3.07 -0.01,-19.65 -0.01,-29.48 -0.02,-49.13 9.34,-1.88 14.02,-2.82 23.36,-4.7 1.87,2.34 2.8,3.5 4.67,5.8 7.48,-1.58 11.21,-2.37 18.69,-3.95 0,-2.62 0,-3.93 0,-6.55 0,-15.72 0,-23.58 -0.01,-39.29 0,-2.62 0,-3.93 0,-6.55 -7.48,0.98 -11.22,1.47 -18.69,2.45 -1.87,2.94 -2.8,4.42 -4.67,7.4 -9.35,1.32 -14.02,1.98 -23.36,3.29 -0.01,-19.65 -0.01,-29.48 -0.02,-49.13 15.89,-1.12 23.84,-1.68 39.73,-2.8 2.81,7.75 4.21,11.58 7.01,19.15 11.22,-1.13 16.82,-1.69 28.04,-2.82 0,-7.52 0,-11.28 0,-18.8 0,-17.55 0,-26.32 0,-43.86 -42.08,0 -84.17,0 -126.25,0 0,18.39 0,27.59 0,45.99 5.62,3.01 8.43,4.55 14.05,7.67 0,42.46 0,84.95 0.01,127.44 z"
   id="path4790"
   inkscape:connector-curvature="0"
   style="fill:#000000"
   inkscape:label="N_F_L" /><path
   d="m 206.71,217.13 c 5.61,2.64 8.42,3.99 14.03,6.73 0,29.56 0,59.12 0,88.69 -15.52,-43.48 -31.52,-86.79 -49.26,-129.42 -0.02,0.01 -0.03,0.01 -0.04,0.02 0.02,-0.27 0.03,-0.4 0.04,-0.67 -25.18,0 -37.77,0 -62.94,0 0,11.56 0,17.34 0,28.9 3.74,2.15 5.61,3.24 9.35,5.46 0,32.72 0,65.44 0,98.17 -5.61,0.48 -8.41,0.7 -14.02,1.07 0,11.45 0,17.18 0,28.63 21.82,7.24 43.63,14.48 65.45,21.73 0,-12.98 0,-19.48 0,-32.46 -5.61,-3.7 -8.42,-5.52 -14.03,-9.11 0,-29.09 0,-58.17 0,-87.26 18.57,46.47 35.26,93.64 51.43,140.99 0,0.1 0,0.15 0,0.25 0.04,0.01 0.06,0.02 0.09,0.03 0.09,0.26 0.13,0.39 0.22,0.65 0.4,-0.1 0.6,-0.15 1,-0.25 18.17,6.03 27.26,9.05 45.43,15.08 0,-56.09 0,-112.17 0,-168.26 5.61,-2.11 8.41,-3.19 14.02,-5.41 0,-15.28 0,-22.93 0,-38.21 -24.31,0 -36.46,0 -60.77,0 0,13.86 0,20.79 0,34.65 z"
   id="path4792"
   class="st1"
   inkscape:connector-curvature="0"
   inkscape:label="_N_FL"
   style="fill:#000000" />
		
		
	</g>
</g></g><g
   inkscape:groupmode="layer"
   id="layer3"
   inkscape:label="Reddit NFL"
   style="display:inline"
   sodipodi:insensitive="true"><g
     id="g40"
     inkscape:label="Reddit NFL"
     style="fill:#ffffff"
     transform="translate(-4.56)"><g
   id="g26"
   inkscape:label="REDDIT"
   style="fill:#ffffff">
		<path
   class="st1"
   d="m 537.94,88.62 v 57.13 H 524 V 88.62 H 505.79 V 76.03 h 50.35 v 12.59 z"
   id="path24"
   inkscape:connector-curvature="0"
   style="fill:#ffffff"
   inkscape:label="REDDI_T_" />
		<path
   class="st1"
   d="m 455.61,76.03 h 13.95 v 69.72 h -13.95 z"
   id="path22"
   inkscape:connector-curvature="0"
   style="fill:#ffffff"
   inkscape:label="REDD_I_T" />
		<path
   class="st1"
   d="m 402.24,76.03 c 8.81,0 13.56,4.75 13.56,13.56 v 42.61 c 0,8.81 -4.75,13.56 -13.56,13.56 H 365.73 V 76.03 Z m -2.32,56.94 c 1.26,0 1.94,-0.68 1.94,-1.94 V 90.75 c 0,-1.26 -0.68,-1.94 -1.94,-1.94 h -20.24 v 44.16 z"
   id="path20"
   inkscape:connector-curvature="0"
   style="fill:#ffffff"
   inkscape:label="RED_D_IT" /><path
   class="st1"
   d="m 312.36,76.03 c 8.81,0 13.56,4.75 13.56,13.56 v 42.61 c 0,8.81 -4.75,13.56 -13.56,13.56 H 275.85 V 76.03 Z m -2.33,56.94 c 1.26,0 1.94,-0.68 1.94,-1.94 V 90.75 c 0,-1.26 -0.68,-1.94 -1.94,-1.94 H 289.8 v 44.16 z"
   id="path18"
   inkscape:connector-curvature="0"
   style="fill:#ffffff"
   inkscape:label="RE_D_DIT" /><path
   class="st1"
   d="m 237.39,76.03 v 12.78 h -31.67 v 15.01 h 25.66 v 12.59 h -25.66 v 16.56 h 31.67 v 12.78 H 191.78 V 76.03 Z"
   id="path16"
   inkscape:connector-curvature="0"
   style="fill:#ffffff"
   inkscape:label="R_E_DDIT" />
		
		<path
   class="st1"
   d="M 139.08,145.75 127.85,119.9 h -11.23 v 25.85 H 102.67 V 76.03 h 35.73 c 8.81,0 13.56,4.75 13.56,13.56 v 16.75 c 0,7.26 -3.29,11.81 -9.39,13.17 l 11.52,26.24 z m -3,-38.25 c 1.26,0 1.94,-0.68 1.94,-1.94 v -15 c 0,-1.26 -0.68,-1.94 -1.94,-1.94 h -19.46 v 18.88 z"
   id="path14"
   inkscape:connector-curvature="0"
   style="fill:#ffffff"
   inkscape:label="_R_EDDIT" />
		
	</g>
	
	<g
   id="g38"
   inkscape:label="NFL"
   style="fill:#ffffff">
		<path
   class="st1"
   d="m 529.28,289.35 c -4.32,13.13 -6.47,19.82 -10.79,33.47 -14.39,3.91 -21.58,5.87 -35.96,9.78 0,-35.21 0,-70.43 0,-105.64 5.61,-2.68 8.42,-3.99 14.03,-6.55 0,-15.17 0,-22.76 0,-37.93 -26.18,0 -39.27,0 -65.45,0 0,17.02 0,25.52 0,42.54 5.61,2.04 8.41,3.03 14.02,4.95 0,35.62 0,71.24 0,106.86 -5.61,3.84 -8.41,5.79 -14.02,9.75 0,17.02 0,25.53 0,42.54 42.08,-14.41 84.15,-28.83 126.23,-43.24 0,-13.46 0,-20.18 0,-33.64 0,-11.53 0,-17.3 0,-28.84 -11.23,2.39 -16.84,3.57 -28.06,5.95 z"
   id="path34"
   inkscape:connector-curvature="0"
   style="fill:#ffffff"
   inkscape:label="NF_L_" /><path
   class="st1"
   d="m 300.23,363.61 c -5.62,1.2 -8.43,1.77 -14.04,2.86 0,15.77 0,23.65 0,39.42 l 1.37,0.46 c 0.73,0.24 1.42,0.47 2.08,0.69 l 0.79,0.26 c 1.31,0.44 2.54,0.84 3.78,1.26 l 3.99,1.33 c 0.04,0.01 0.08,0.03 0.13,0.04 l 36.23,12.06 c 1.02,-0.21 2.06,-0.48 3.15,-0.85 l 5.93,-2.03 c 2.25,-0.77 4.39,-1.5 7.2,-2.47 l 0.87,-0.3 c 0,-16.51 -0.01,-24.76 -0.01,-41.27 -5.61,-1.17 -8.41,-1.78 -14.01,-3.07 -0.01,-19.65 -0.01,-29.48 -0.02,-49.13 9.34,-1.88 14.02,-2.82 23.36,-4.7 1.87,2.34 2.8,3.5 4.67,5.8 7.48,-1.58 11.21,-2.37 18.69,-3.95 0,-2.62 0,-3.93 0,-6.55 0,-15.72 0,-23.58 -0.01,-39.29 0,-2.62 0,-3.93 0,-6.55 -7.48,0.98 -11.22,1.47 -18.69,2.45 -1.87,2.94 -2.8,4.42 -4.67,7.4 -9.35,1.32 -14.02,1.98 -23.36,3.29 -0.01,-19.65 -0.01,-29.48 -0.02,-49.13 15.89,-1.12 23.84,-1.68 39.73,-2.8 2.81,7.75 4.21,11.58 7.01,19.15 11.22,-1.13 16.82,-1.69 28.04,-2.82 0,-7.52 0,-11.28 0,-18.8 0,-17.55 0,-26.32 0,-43.86 -42.08,0 -84.17,0 -126.25,0 0,18.39 0,27.59 0,45.99 5.62,3.01 8.43,4.55 14.05,7.67 0,42.46 0,84.95 0.01,127.44 z"
   id="path28"
   inkscape:connector-curvature="0"
   style="fill:#ffffff"
   inkscape:label="N_F_L" /><path
   d="m 206.71,217.13 c 5.61,2.64 8.42,3.99 14.03,6.73 0,29.56 0,59.12 0,88.69 -15.52,-43.48 -31.52,-86.79 -49.26,-129.42 -0.02,0.01 -0.03,0.01 -0.04,0.02 0.02,-0.27 0.03,-0.4 0.04,-0.67 -25.18,0 -37.77,0 -62.94,0 0,11.56 0,17.34 0,28.9 3.74,2.15 5.61,3.24 9.35,5.46 0,32.72 0,65.44 0,98.17 -5.61,0.48 -8.41,0.7 -14.02,1.07 0,11.45 0,17.18 0,28.63 21.82,7.24 43.63,14.48 65.45,21.73 0,-12.98 0,-19.48 0,-32.46 -5.61,-3.7 -8.42,-5.52 -14.03,-9.11 0,-29.09 0,-58.17 0,-87.26 18.57,46.47 35.26,93.64 51.43,140.99 0,0.1 0,0.15 0,0.25 0.04,0.01 0.06,0.02 0.09,0.03 0.09,0.26 0.13,0.39 0.22,0.65 0.4,-0.1 0.6,-0.15 1,-0.25 18.17,6.03 27.26,9.05 45.43,15.08 0,-56.09 0,-112.17 0,-168.26 5.61,-2.11 8.41,-3.19 14.02,-5.41 0,-15.28 0,-22.93 0,-38.21 -24.31,0 -36.46,0 -60.77,0 0,13.86 0,20.79 0,34.65 z"
   id="path30"
   class="st1"
   inkscape:connector-curvature="0"
   inkscape:label="_N_FL"
   style="fill:#ffffff" />
		
		
	</g>
</g></g></svg>